<?xml version="1.0" encoding="UTF-8"?>
<svg id="Layer_1" xmlns="http://www.w3.org/2000/svg" version="1.1" viewBox="0 0 24 24">
  <!-- Generator: Adobe Illustrator 29.3.1, SVG Export Plug-In . SVG Version: 2.1.0 Build 151)  -->
  <defs>
    <style>
      .st0 {
        fill: #346bcf;
      }

      .st1 {
        fill: #346ccf;
      }
    </style>
  </defs>
  <path class="st0" d="M19,15v4.4c-.5.1-1,.3-1.4.3-6.5.7-10.5-7-6.2-11.9s12.2-1.9,12.5,4.6c0,1.8,0,3.6,0,5.3s-3.6,2.6-3.7-.1.1-3.7,0-5.5-.7-2.1-1.6-2.6c-1.9-1.1-4.3-.1-4.9,1.9-.9,3,2,5.4,4.8,3.9s.3-.2.5-.3Z"/>
  <g>
    <path class="st1" d="M5,5.4c1,0,1.9.8,2,1.8v12c0,2.6-2.5,4.9-5.1,4.8s-2.5-2.3-1.2-3.5.8-.4,1.4-.5,1-.6,1-1.1V7.2c.1-1,1-1.7,1.9-1.7Z"/>
    <path class="st1" d="M6.5.7c1.1,1.1.7,3-.8,3.5S2.1,2.4,3.6.8s2.1-.9,3-.1Z"/>
  </g>
</svg>