<?xml version="1.0" encoding="UTF-8"?>
<svg id="Layer_2" data-name="Layer 2" xmlns="http://www.w3.org/2000/svg" viewBox="0 0 140.67 21.63">
  <defs>
    <style>
      .cls-1 {
        fill: #346bcf;
      }

      .cls-2 {
        fill: #9f9fa9;
      }

      .cls-3 {
        fill: #346ccf;
      }
    </style>
  </defs>
  <g id="Layer_1-2" data-name="Layer 1">
    <g>
      <g>
        <path class="cls-2" d="M27.68,4.89v12.25h-1.89V4.89h1.89ZM29.85,17.14h-3.1v-1.62h2.99c.95,0,1.75-.17,2.38-.52.63-.35,1.11-.86,1.42-1.54.31-.68.47-1.5.47-2.46s-.16-1.77-.47-2.44-.78-1.18-1.39-1.53c-.62-.35-1.38-.52-2.3-.52h-3.17v-1.62h3.29c1.23,0,2.28.24,3.17.73.88.49,1.56,1.19,2.03,2.1.47.91.71,2.01.71,3.28s-.24,2.37-.71,3.29-1.16,1.62-2.06,2.11-1.98.74-3.26.74Z"/>
        <path class="cls-2" d="M41.3,17.33c-.88,0-1.65-.2-2.31-.59-.66-.39-1.17-.95-1.53-1.66-.36-.71-.54-1.54-.54-2.48s.18-1.79.54-2.5c.36-.72.87-1.27,1.53-1.67.66-.39,1.43-.59,2.31-.59s1.66.2,2.31.59c.66.4,1.17.95,1.53,1.67.36.72.55,1.55.55,2.5s-.18,1.77-.55,2.48c-.37.71-.88,1.27-1.53,1.66-.66.4-1.43.59-2.31.59ZM41.3,15.83c.58,0,1.06-.15,1.43-.44s.66-.69.84-1.18c.18-.49.27-1.03.27-1.61s-.09-1.14-.27-1.63c-.18-.49-.46-.89-.84-1.18-.38-.3-.85-.44-1.43-.44s-1.04.15-1.42.44c-.37.3-.65.69-.84,1.18-.19.49-.28,1.04-.28,1.63s.09,1.12.28,1.61c.19.49.46.88.84,1.18.37.3.85.44,1.42.44Z"/>
        <path class="cls-2" d="M50.96,17.33c-.9,0-1.68-.2-2.34-.61-.66-.41-1.16-.97-1.52-1.68-.35-.71-.53-1.53-.53-2.45s.18-1.76.54-2.48c.36-.72.87-1.27,1.52-1.68.65-.4,1.42-.6,2.3-.6.72,0,1.36.13,1.92.38.56.25,1.01.62,1.35,1.08.35.47.55,1.01.61,1.63h-1.78c-.06-.29-.18-.56-.36-.8s-.41-.43-.69-.58c-.29-.14-.63-.21-1.02-.21-.51,0-.96.13-1.33.39s-.67.63-.89,1.11-.32,1.05-.32,1.71.1,1.24.31,1.74.5.87.89,1.14c.38.27.83.4,1.34.4s.98-.14,1.35-.43c.37-.29.61-.67.72-1.17h1.78c-.06.6-.26,1.13-.59,1.6s-.77.83-1.33,1.1c-.56.27-1.2.4-1.94.4Z"/>
        <path class="cls-2" d="M62.07,13.34v-5.4h1.82v9.19h-1.78v-1.6h-.1c-.22.49-.57.9-1.04,1.23-.47.33-1.06.49-1.77.49-.61,0-1.14-.13-1.6-.39-.46-.26-.82-.64-1.09-1.16-.26-.52-.39-1.15-.39-1.92v-5.85h1.82v5.64c0,.62.18,1.12.54,1.49.36.37.82.56,1.39.55.34,0,.68-.08,1.02-.25.34-.17.62-.42.85-.76.23-.34.34-.77.34-1.28Z"/>
        <path class="cls-2" d="M65.64,17.14V7.95h1.74v1.51h.13c.2-.51.52-.91.96-1.2.45-.29.98-.43,1.6-.43s1.15.14,1.58.43c.42.29.74.69.95,1.2h.1c.22-.5.58-.9,1.07-1.19.49-.29,1.07-.44,1.74-.44.85,0,1.55.26,2.1.79s.82,1.31.82,2.36v6.16h-1.83v-6c0-.62-.17-1.08-.52-1.35-.35-.28-.76-.42-1.25-.42-.6,0-1.06.18-1.38.54-.33.36-.49.81-.49,1.36v5.86h-1.83v-6.11c0-.5-.16-.9-.47-1.2-.31-.3-.73-.45-1.24-.45-.35,0-.67.09-.96.27-.29.18-.53.43-.71.74-.18.32-.27.68-.27,1.09v5.67h-1.82Z"/>
        <path class="cls-2" d="M84.22,17.33c-.92,0-1.72-.2-2.39-.58-.67-.39-1.19-.94-1.55-1.65-.36-.71-.54-1.54-.54-2.49s.18-1.77.53-2.49.86-1.28,1.51-1.68c.65-.4,1.41-.6,2.29-.6.53,0,1.05.08,1.55.25.5.17.95.44,1.35.81.4.37.71.84.95,1.43.23.59.35,1.29.35,2.12v.64h-7.48v-1.34h6.54l-.85.44c0-.56-.09-1.06-.27-1.5s-.45-.77-.8-1.02c-.36-.24-.8-.37-1.33-.37s-.98.12-1.35.37c-.37.25-.66.57-.85.98-.2.41-.29.85-.29,1.33v.91c0,.63.11,1.17.34,1.6s.54.77.94,1c.4.23.87.34,1.4.34.35,0,.66-.05.95-.15.28-.1.53-.25.74-.44.21-.2.36-.44.47-.73l1.73.32c-.14.49-.39.93-.74,1.3-.35.37-.8.66-1.33.87-.54.21-1.15.31-1.83.31Z"/>
        <path class="cls-2" d="M91.35,11.69v5.45h-1.82V7.95h1.77v1.51h.13c.21-.5.55-.9,1-1.19.45-.29,1.04-.44,1.75-.44.64,0,1.2.13,1.68.39.48.26.85.65,1.12,1.16.27.52.4,1.15.4,1.92v5.84h-1.82v-5.63c0-.66-.18-1.19-.54-1.57-.36-.38-.85-.57-1.46-.57-.42,0-.8.09-1.13.28s-.6.45-.79.79c-.19.34-.29.76-.29,1.25Z"/>
        <path class="cls-2" d="M103.5,7.95v1.44h-5.13v-1.44h5.13ZM99.74,5.76h1.83v8.69c0,.42.09.73.27.92.18.2.47.29.87.29.09,0,.2,0,.31-.02.11-.01.22-.03.33-.05l.34,1.48c-.18.06-.39.11-.61.14-.22.03-.44.05-.66.05-.81,0-1.46-.22-1.95-.67s-.73-1.04-.73-1.79V5.76Z"/>
        <path class="cls-2" d="M107.53,17.34c-.59,0-1.13-.11-1.62-.33-.48-.22-.86-.53-1.14-.95s-.42-.92-.42-1.52c0-.52.1-.95.31-1.28.2-.33.48-.6.83-.79.35-.2.73-.35,1.16-.44s.86-.18,1.31-.23c.57-.06,1.02-.11,1.37-.16.35-.04.6-.11.76-.21.16-.1.24-.25.24-.46v-.04c0-.52-.15-.92-.45-1.21-.3-.28-.74-.43-1.33-.43s-1.1.13-1.45.39c-.36.26-.6.56-.74.88l-1.73-.39c.21-.56.51-1.01.91-1.35s.85-.59,1.36-.75,1.05-.24,1.61-.24c.38,0,.77.04,1.2.13s.82.24,1.19.47c.37.23.68.55.91.97.24.42.35.97.35,1.64v6.1h-1.79v-1.26h-.07c-.11.22-.29.45-.53.67s-.54.41-.91.56c-.37.15-.82.22-1.34.22ZM107.93,15.91c.51,0,.95-.1,1.3-.29.36-.19.63-.45.83-.77.19-.32.29-.66.29-1.01v-1.19c-.07.06-.19.12-.38.17-.18.05-.4.1-.63.14-.24.04-.47.07-.69.1s-.41.05-.56.07c-.35.05-.68.12-.97.23s-.53.25-.7.44c-.18.19-.26.45-.26.77,0,.44.17.78.5,1,.34.22.76.34,1.28.34Z"/>
        <path class="cls-2" d="M118.3,7.95v1.44h-5.13v-1.44h5.13ZM114.54,5.76h1.83v8.69c0,.42.09.73.27.92.18.2.47.29.87.29.09,0,.2,0,.31-.02.11-.01.22-.03.33-.05l.34,1.48c-.18.06-.39.11-.61.14-.22.03-.44.05-.66.05-.81,0-1.46-.22-1.95-.67s-.73-1.04-.73-1.79V5.76Z"/>
        <path class="cls-2" d="M120.52,6.53c-.32,0-.59-.1-.82-.31-.22-.21-.34-.46-.34-.75s.11-.55.34-.76c.22-.21.5-.31.82-.31s.58.1.81.31c.23.21.34.46.34.76s-.11.54-.34.75c-.23.21-.5.31-.81.31ZM119.61,17.14V7.95h1.82v9.19h-1.82Z"/>
        <path class="cls-2" d="M127.12,17.33c-.88,0-1.65-.2-2.31-.59-.66-.39-1.17-.95-1.53-1.66-.36-.71-.54-1.54-.54-2.48s.18-1.79.54-2.5c.36-.72.87-1.27,1.53-1.67.66-.39,1.43-.59,2.31-.59s1.66.2,2.32.59c.66.4,1.17.95,1.53,1.67.37.72.55,1.55.55,2.5s-.18,1.77-.55,2.48c-.36.71-.88,1.27-1.53,1.66-.66.4-1.43.59-2.32.59ZM127.12,15.83c.58,0,1.05-.15,1.43-.44s.66-.69.84-1.18c.18-.49.27-1.03.27-1.61s-.09-1.14-.27-1.63c-.18-.49-.46-.89-.84-1.18-.38-.3-.85-.44-1.43-.44s-1.04.15-1.42.44c-.37.3-.65.69-.84,1.18-.19.49-.28,1.04-.28,1.63s.09,1.12.28,1.61c.19.49.46.88.84,1.18.37.3.85.44,1.42.44Z"/>
        <path class="cls-2" d="M134.65,11.69v5.45h-1.82V7.95h1.77v1.51h.13c.21-.5.55-.9,1-1.19.45-.29,1.04-.44,1.75-.44.64,0,1.2.13,1.68.39.48.26.85.65,1.12,1.16.27.52.4,1.15.4,1.92v5.84h-1.82v-5.63c0-.66-.18-1.19-.54-1.57-.36-.38-.85-.57-1.46-.57-.42,0-.8.09-1.13.28s-.6.45-.79.79c-.19.34-.29.76-.29,1.25Z"/>
      </g>
      <g>
        <path class="cls-1" d="M16.66,13.32v3.75c-.41.12-.82.23-1.25.28-5.59.63-9.09-6.02-5.31-10.23s10.55-1.62,10.77,3.97c-.06,1.52.08,3.1,0,4.6-.11,2.12-3.07,2.23-3.18-.11-.07-1.56.1-3.22,0-4.77-.06-.91-.64-1.79-1.42-2.24-1.6-.93-3.69-.12-4.21,1.66-.76,2.6,1.76,4.67,4.14,3.37.16-.09.29-.21.45-.28Z"/>
        <path class="cls-3" d="M4.62,5.06c.89-.02,1.62.67,1.71,1.54v10.31c-.08,2.23-2.15,4.26-4.42,4.12-1.52-.09-2.19-2.02-1.02-3,.42-.36.72-.35,1.23-.41.47-.06.86-.51.85-.98V6.55c.11-.82.82-1.48,1.66-1.5Z"/>
        <path class="cls-3" d="M5.92.97c.96.94.59,2.56-.66,3.02-1.77.65-3.16-1.57-1.89-2.93.67-.71,1.84-.79,2.55-.09Z"/>
      </g>
    </g>
  </g>
</svg>